# xmcd CD database file
#
# Track frame offsets:
#	150
#	15343
#	31601
#	48631
#	66502
#	82465
#	102045
#	118380
#	134158
#	149336
#	162653
#	178713
#	196946
#	214332
#
# Disc length: 3060 seconds
#
# Revision: 2
# Processed by: cddbd v1.5.1PL0 Copyright (c) Steve Scherf et al.
# Submitted via: CDex 1.51
#
DISCID=da0bf20e
DTITLE=Various Artist - Kultschlager der 80er - CD 2
DYEAR=2000
DGENRE=Deutscher Schlager
TTITLE0=1000 und 1 Nacht (Zoom) - Klaus Lage Band 
TTITLE1=Skandal im Sperrbezirk - Spider Murphy Gang 
TTITLE2=Überdosis Glück - Fux 
TTITLE3=Du bist alles - Andreas Martin
TTITLE4=An deiner Stelle nähm' ich mich - Ibo
TTITLE5=Du entschuldige ich kenn dich - Bernhard Brink
TTITLE6=Angie - Costa Cordalis 
TTITLE7=Der Traum von ewiger Liebe - Patrick Lindner
TTITLE8=Resi i hol di mit mein Traktor ab - Wolfgang Fierek
TTITLE9=Wenn i mit dir tanz - Nicki 
TTITLE10=Commen ca va - Shorts 
TTITLE11=Küß die Hand schöne Frau - Erste Allgemeine Verunsicherung
TTITLE12=Bye bye my love - De Bläck Fööss
TTITLE13=Willst du mit mir gehn - Daliah Lavi 
EXTD=YEAR: 2000
EXTT0=
EXTT1=
EXTT2=
EXTT3=
EXTT4=
EXTT5=
EXTT6=
EXTT7=
EXTT8=
EXTT9=
EXTT10=
EXTT11=
EXTT12=
EXTT13=
PLAYORDER=
